<svg width="32" height="31" viewBox="0 0 32 31" fill="none" xmlns="http://www.w3.org/2000/svg">
<g clip-path="url(#clip0_1_1440)">
<path d="M19.2703 23.8216C20.4589 25.9341 23.0916 26.658 25.1504 25.4383C27.2093 24.2187 27.8224 21.3537 26.726 19.405C25.6296 17.4565 24.0149 16.8733 22.1334 17.1218L24.5458 12.8391C26.9714 13.2908 29.195 14.7929 30.5243 17.155C32.9239 21.4198 31.4999 26.8732 27.3433 29.3355C23.1868 31.7977 17.8719 30.3365 15.4721 26.0716L10.8832 17.9167L15.9551 17.9302L19.2703 23.8216Z" fill="#00FFD0"/>
<path d="M19.5788 11.3888C20.7675 9.2763 20.062 6.57511 18.0031 5.35548C15.9444 4.13585 13.2195 5.02353 12.1231 6.9721C11.0266 8.92065 11.3417 10.647 12.4923 12.1945L7.67117 12.1924C6.83959 9.81111 6.99566 7.08428 8.32486 4.7221C10.7246 0.457314 16.0396 -1.00391 20.196 1.45836C24.3526 3.92063 25.7767 9.37398 23.377 13.6388L18.7882 21.7939L16.2636 17.2804L19.5788 11.3888Z" fill="#00FFD0"/>
<path d="M9.01524 17.3333C6.6379 17.3333 4.71068 19.3106 4.71068 21.75C4.71068 24.1893 6.82235 26.1666 9.01524 26.1666C11.2081 26.1666 12.5077 25.0235 13.2386 23.2273L15.6473 27.5123C14.0532 29.442 11.6736 30.6666 9.01524 30.6666C4.2157 30.6666 0.32489 26.6745 0.32489 21.75C0.32489 16.8255 4.2157 12.8333 9.01524 12.8333H18.1929L15.6456 17.3333H9.01524Z" fill="#00FFD0"/>
</g>
<defs>
<clipPath id="clip0_1_1440">
<rect width="32" height="31" fill="white"/>
</clipPath>
</defs>
</svg>
